<?xml version="1.0" encoding="UTF-8"?> <svg xmlns="http://www.w3.org/2000/svg" width="193" height="72" viewBox="0 0 193 72" fill="none"><g clip-path="url(#clip0_59_904)"><path fill-rule="evenodd" clip-rule="evenodd" d="M28.5144 31.3776C27.3738 31.4977 26.4133 31.7378 25.6329 32.5782C23.6519 34.5592 24.0121 38.8814 22.1512 41.2226C21.9711 41.4627 20.8305 42.7833 20.5303 42.9634C19.6899 43.6838 18.2492 44.044 17.1687 44.3441C16.4483 44.5842 15.848 44.7643 15.1877 45.0645C14.7674 45.2446 14.2872 45.5447 13.927 45.8449C13.807 45.9649 13.6869 46.085 13.5668 46.145C13.1466 46.6253 12.7864 47.1655 12.6664 47.9459C12.2462 50.8274 14.8275 53.8889 17.829 53.5287C20.7104 53.1686 20.9506 49.3867 21.9711 46.8054C22.4513 45.4847 22.7515 45.2446 23.5318 44.3441C23.832 43.9839 24.1321 43.6238 24.4923 43.2636C24.5524 43.2036 24.6124 43.1435 24.6724 43.0835C24.9125 42.8434 25.3328 42.5432 25.6929 42.3631C26.2932 42.0029 26.9536 41.8229 27.6139 41.5827C28.9946 41.1625 30.4353 40.9224 31.6359 40.202C32.8966 39.4217 33.5569 38.3411 33.6769 36.8404C33.797 35.5797 33.6769 34.5592 33.0166 33.4787C32.0561 32.098 30.3753 31.1975 28.5144 31.3776Z" fill="#B300B3"></path><path fill-rule="evenodd" clip-rule="evenodd" d="M28.3943 45.8449C27.0136 45.9649 26.0531 46.2051 25.0926 47.2256C24.4323 48.006 24.0121 49.3266 23.7719 50.5873C23.5919 51.7278 23.2917 53.2286 22.7514 54.1891C22.5713 54.5493 22.4513 54.5493 22.2112 54.7894C21.971 54.9695 21.791 55.1496 21.5508 55.3296C21.0706 55.6898 20.8305 55.99 20.1101 56.2301C18.5493 56.7103 15.968 56.9505 14.9475 58.031C14.5273 58.4512 14.3472 59.0515 14.5273 59.8319C14.9475 61.8729 17.6489 63.8539 19.93 63.7339C20.6504 63.6738 21.0706 63.4937 21.5508 63.0135C22.2712 62.2331 22.3913 60.4322 22.5713 59.3517C22.6314 59.0515 22.6914 58.6913 22.8115 58.4512C22.9916 58.091 23.1116 58.031 23.3517 57.8509C23.5919 57.6708 24.7925 56.6503 24.9726 56.5903C25.3327 56.4702 25.873 56.2901 26.2932 56.1701C26.8935 55.99 27.4938 55.8099 28.1542 55.6898C29.2347 55.4497 30.6154 55.0295 31.5759 54.4892C31.816 54.3692 32.0561 54.1891 32.2962 54.009C32.5364 53.8289 32.7164 53.6488 32.8965 53.4087C33.5569 52.6283 34.0371 51.1275 33.797 49.7468C33.3768 47.4657 31.1557 45.6048 28.3943 45.8449Z" fill="#3B4A94"></path><path fill-rule="evenodd" clip-rule="evenodd" d="M52.3463 8.20591C50.8455 8.32597 50.4253 9.40652 50.1252 10.7272C50.0051 11.3275 49.8851 12.0478 49.705 12.5881C49.5249 13.2484 49.2847 13.7287 48.9246 14.1489C48.5044 14.6892 48.2642 14.8092 47.9041 15.1694C47.5439 15.5296 46.8835 16.1299 46.4633 16.37C44.4823 17.6307 41.1206 17.2104 39.5599 18.8313C39.1997 19.1914 38.8995 19.6717 38.7194 20.332C38.5393 20.9323 38.5393 21.8328 38.5994 22.4931C38.8395 23.8738 39.5599 24.7742 40.4003 25.3745C41.3608 26.0949 42.5614 26.4551 44.0621 26.335C45.6229 26.215 46.4633 25.6747 47.0636 24.6542C47.6639 23.6337 47.724 22.1929 47.9641 20.8723C48.0841 20.2119 48.1442 19.5516 48.3843 19.0113C48.6844 18.351 48.9846 18.0509 49.4048 17.6907C49.765 17.3905 50.2452 16.9103 50.6054 16.5501C51.9261 15.3495 54.2072 15.2895 55.8881 14.8092C57.2087 14.4491 58.1092 13.7287 57.689 12.1079C57.2087 9.88676 54.5674 8.02582 52.3463 8.20591Z" fill="#3B4A94"></path><path fill-rule="evenodd" clip-rule="evenodd" d="M28.9345 17.6306C28.2742 17.6907 27.7339 17.8107 27.1937 18.0509C26.7134 18.291 26.2332 18.6512 25.933 18.9513C25.5728 19.3115 25.2727 19.7317 24.9125 20.1519C24.7324 20.332 24.5523 20.5121 24.3122 20.6922C24.0721 20.8723 23.892 20.9323 23.5318 21.0524C23.2317 21.1124 21.7309 21.1124 21.4308 21.1124C20.8305 21.0524 20.4703 20.5121 20.1701 20.2119C19.8099 19.7917 19.5698 19.4316 19.0896 19.1314C18.6093 18.7112 18.0691 18.5911 17.4087 18.5311C14.4072 18.4711 12.006 21.8328 12.7864 24.5341C13.0265 25.2545 13.5668 26.0349 14.1671 26.3951C15.5478 27.1154 17.2286 26.8153 18.4293 25.9748C18.9095 25.6747 19.2096 25.3145 19.5698 24.9543C20.7104 24.0539 21.4308 24.1739 23.1716 24.1739C24.7924 24.1739 24.9725 24.6542 26.2332 25.4946C27.1336 26.1549 28.3943 26.3951 29.775 26.215C31.936 25.8548 33.857 23.9338 33.7369 21.4726C33.6769 19.1914 31.5158 17.3905 28.9345 17.6306Z" fill="#3B4A94"></path><path fill-rule="evenodd" clip-rule="evenodd" d="M7.32364 20.392C6.60328 20.5121 6.2431 20.8122 5.82289 21.1724C5.70283 21.2925 5.64279 21.3525 5.52273 21.4726C5.40267 21.6527 5.04249 22.1929 4.8624 22.4331C4.32213 23.3335 3.84189 24.7142 4.02198 26.0349C4.20207 27.4156 4.98246 28.0159 6.00298 28.5561C7.14355 29.0964 8.16406 29.3966 8.88442 30.1769L9.90494 31.3775C11.0455 32.8183 11.2256 36.0599 12.1861 38.1009C12.4262 38.5812 12.7264 39.0614 13.0865 39.4816C13.7469 40.202 15.0675 40.7423 16.4482 40.5021C17.7089 40.322 18.5493 39.4216 19.0896 38.6412C19.6899 37.6807 19.93 36.3 19.6899 34.9193C19.2696 32.0979 17.2886 31.3775 15.0075 30.5972C13.7469 30.1769 12.7864 29.8768 12.1261 29.0364C11.946 28.8563 11.8259 28.6162 11.6458 28.4361C11.4657 28.256 11.2856 28.0159 11.1656 27.8358C10.8654 27.4156 10.6253 26.8753 10.4452 26.275C10.085 25.0744 9.90494 23.8137 9.60479 22.6131C9.24461 21.5926 8.76436 20.1519 7.32364 20.392Z" fill="#B300B3"></path><path fill-rule="evenodd" clip-rule="evenodd" d="M46.7035 61.8729C46.8235 61.2726 46.5834 60.6723 46.3433 60.2521C45.4428 58.8714 43.5819 58.5112 41.9011 58.8113C41.0006 58.9914 39.9201 59.5317 39.3198 60.2521C38.1192 61.7528 38.5994 62.2931 38.1192 63.1335C37.879 63.5537 37.4588 63.9139 37.0386 64.094C36.5584 64.3341 36.1982 64.5742 35.778 64.8744C34.9376 65.4147 34.0971 65.8949 33.2567 66.4352C33.0166 66.5552 32.8365 66.6753 32.6564 66.8554C32.2962 67.0955 32.3563 67.0955 31.876 67.0955C31.2757 67.1555 30.6154 67.2156 30.0151 67.2756C28.9345 67.3956 27.4938 67.6958 27.0736 68.4162C26.9535 68.6563 26.8935 68.9564 26.9535 69.2566C27.0736 70.037 27.794 70.3972 28.5143 70.7573C29.4148 71.1776 30.7955 71.4177 31.876 71.4777C32.5363 71.4777 33.1366 71.3576 33.4368 70.9975C33.9771 70.3371 33.917 69.4967 34.8775 68.4162C35.1777 68.056 35.6579 67.8159 36.0781 67.5757C36.8585 67.0955 37.879 66.4952 38.5394 66.015C39.1997 65.5347 40.8805 65.4147 41.9011 65.3546C42.5614 65.2946 43.0416 65.2346 43.6419 65.0545C45.0826 64.5142 46.4633 63.4937 46.7035 61.8729Z" fill="#00B0DE"></path><path fill-rule="evenodd" clip-rule="evenodd" d="M31.0356 0.582081C29.5949 0.702142 28.6944 0.762172 27.734 1.54256C27.0736 2.08284 26.6534 3.28344 25.9331 4.18389C25.873 4.30395 25.6329 4.48404 25.5129 4.54407L23.6519 5.86474C22.8115 6.46504 22.0311 7.12537 21.0706 7.48555C19.0896 8.26594 16.5684 7.84573 15.2477 10.0668C14.8275 10.7872 14.1071 12.348 14.5874 13.3085C15.0676 14.329 16.2682 14.5091 17.6489 14.329C21.0106 13.8487 20.7705 12.2279 21.911 10.1869C22.4513 9.22643 23.1116 8.68615 24.0121 8.08585C24.4323 7.7857 24.7925 7.48555 25.2127 7.1854L27.6739 5.44452C29.4148 4.24392 32.0561 3.76368 33.4969 2.86323C33.797 2.68314 34.4573 2.14287 34.2172 1.54256C33.9171 0.642111 32.1162 0.522051 31.0356 0.582081Z" fill="#B300B3"></path><path fill-rule="evenodd" clip-rule="evenodd" d="M40.2202 0.582177C39.5599 0.642207 38.1792 0.822297 38.0591 1.66272C37.9991 2.14296 38.2392 2.6232 38.4793 2.86332C38.8996 3.34356 39.6199 3.70375 40.2202 4.30405C40.5804 4.6042 40.6404 4.90435 40.6404 5.50465C40.6404 6.10495 40.5204 6.34507 40.2202 6.70525L39.8 7.06543C38.8395 7.7858 38.3593 8.32607 38.4193 9.64673C38.4793 10.9074 39.3798 11.9279 40.4003 12.5282C43.4018 14.2691 47.724 12.7083 46.5834 9.28655C45.9231 7.30556 43.822 7.24553 43.3418 6.10495C43.2217 5.8048 43.1617 5.02441 43.3418 4.72426C43.5219 4.42411 43.8821 4.24402 44.3023 4.06393C44.6625 3.88384 45.0827 3.70375 45.2628 3.40359C45.5029 3.04341 45.4428 2.50314 45.1427 2.20299C44.6625 1.66272 43.9421 1.30254 43.1017 1.06242C42.2612 0.702237 41.1807 0.522146 40.2202 0.582177Z" fill="#B300B3"></path><path fill-rule="evenodd" clip-rule="evenodd" d="M5.52278 32.098C4.5623 32.218 3.962 32.9984 3.66185 33.7188C3.24164 34.5592 3.12158 35.6398 3.18161 36.7203C3.30167 37.7408 3.60182 38.6413 4.02203 39.4217C4.5623 40.4422 4.92248 40.8024 5.04254 41.9429C5.10257 42.4832 5.22263 43.0235 5.04254 43.5037C4.92248 43.984 4.62233 44.2841 4.44224 44.6443C3.90197 45.6648 3.962 46.5052 4.20212 47.6458C4.50227 49.2666 5.88297 51.4277 7.20363 51.7278C8.28417 51.968 9.00453 51.0675 9.12459 50.1671C9.30468 49.0865 9.12459 48.066 8.76441 47.1655C8.52429 46.4452 7.92399 45.5447 7.56381 44.8244C7.08357 43.8639 7.02354 43.1435 6.90348 41.9429C6.84345 41.2826 6.90348 40.9824 7.1436 40.4422C7.7439 39.0615 8.3442 38.161 8.3442 36.3601C8.3442 34.9194 7.98402 33.2986 6.90348 32.5182C6.5433 32.218 6.06306 31.9779 5.52278 32.098Z" fill="#3B4A94"></path><path fill-rule="evenodd" clip-rule="evenodd" d="M41.6009 48.9665C40.6404 49.0866 39.92 49.3267 39.1997 49.867L38.7194 50.2272C38.4793 50.4073 38.2392 50.7074 38.0591 50.9475C36.7985 52.6884 36.9786 55.1496 38.5994 56.5303C39.3197 57.1306 40.6404 57.791 41.9611 57.5508C42.9215 57.4308 43.5819 57.1306 44.3623 56.6504C44.7825 56.3502 45.2027 55.93 45.4428 55.5098C45.5629 55.3297 45.743 55.0896 45.863 54.7895C46.1031 54.2492 46.2832 53.7089 46.2832 52.9886C46.3433 50.5873 44.1822 48.6664 41.6009 48.9665Z" fill="#00E7FF"></path><path fill-rule="evenodd" clip-rule="evenodd" d="M51.3258 51.968C51.9261 52.0281 52.4064 52.3282 52.7065 52.8685C53.3068 53.949 52.8266 55.3898 51.9261 56.1101C51.5659 56.4103 50.9656 56.7104 50.2453 56.7104C48.9846 56.5904 48.3243 55.3297 48.7445 53.949C48.8646 53.6489 48.9846 53.4088 49.1047 53.1686C49.2248 52.9886 49.4649 52.7484 49.645 52.5683C50.0652 52.2682 50.6655 51.908 51.3258 51.968Z" fill="#B300B3"></path><path fill-rule="evenodd" clip-rule="evenodd" d="M25.6329 61.8728C25.753 62.8933 26.5333 63.7338 27.0736 64.154C27.794 64.6943 28.6944 65.1145 29.7149 65.2345C30.7955 65.3546 31.9361 65.1145 32.7165 64.5742C33.3768 64.154 34.0971 63.3136 33.9171 62.113C33.5569 59.1715 29.1747 57.7908 26.7735 59.4116C26.2332 59.8318 25.5128 60.6722 25.6329 61.8728Z" fill="#00E7FF"></path><path fill-rule="evenodd" clip-rule="evenodd" d="M29.9551 6.70505C28.8145 6.82511 27.9741 7.12526 27.1937 7.72556C26.0531 8.50595 25.0926 9.94668 25.813 11.4474C26.4733 12.8281 28.0341 13.3084 29.5949 13.2483C33.3168 13.0682 35.2978 9.34638 32.8365 7.48544C32.2362 7.0052 31.0956 6.58499 29.9551 6.70505Z" fill="#3B4A94"></path><path fill-rule="evenodd" clip-rule="evenodd" d="M55.2278 57.4907C54.2073 57.6108 53.4869 57.9109 52.8266 58.3911L52.4664 58.6313C52.3463 58.7513 52.2863 58.7513 52.1062 58.9314L51.8061 59.2316C51.746 59.2916 51.746 59.2916 51.686 59.3516C51.5059 59.5317 51.2658 59.8919 51.1457 60.072C50.7255 60.7323 50.4254 61.8729 50.8456 62.7133C51.2058 63.4337 52.1062 63.7939 53.2468 63.6738C54.7475 63.4937 56.4884 62.2331 57.2088 60.9724C58.5895 58.8114 57.3288 57.1905 55.2278 57.4907Z" fill="#B300B3"></path><path fill-rule="evenodd" clip-rule="evenodd" d="M45.3228 69.4969C45.5029 69.0767 45.2027 68.7165 44.9626 68.5364C44.1822 67.876 42.6214 67.8761 41.6009 67.9961C38.5994 68.3563 36.6184 70.5174 39.3198 71.2377C40.0401 71.4178 41.0006 71.4178 41.781 71.2978C42.5614 71.1777 43.2217 70.9976 43.822 70.6975C44.4223 70.4573 45.0826 70.0371 45.3228 69.4969Z" fill="#B300B3"></path><path fill-rule="evenodd" clip-rule="evenodd" d="M61.2908 11.1474C60.4504 11.3275 60.7505 12.4081 60.9907 13.0684C61.2308 13.7287 61.591 14.329 61.9511 14.8093C62.1312 15.0494 62.3714 15.2895 62.5514 15.5296C63.1517 16.1299 64.2923 17.0904 65.1928 16.9703C65.553 16.9103 65.733 16.5501 65.733 16.1299C65.733 15.7697 65.613 15.3495 65.4329 15.0494C65.0727 14.1489 64.4124 13.4286 63.8121 12.6482C63.632 12.4081 63.3318 12.1679 63.0917 11.9878C62.7916 11.7477 61.9511 11.0274 61.2908 11.1474Z" fill="#3B4A94"></path><path fill-rule="evenodd" clip-rule="evenodd" d="M10.6854 11.1475C10.2652 11.2675 10.0251 11.3876 9.78494 11.5677C9.00455 12.108 8.34422 12.8283 7.80395 13.6087C7.38373 14.149 7.08358 14.6893 6.84346 15.3496C6.60334 16.07 6.60334 17.1505 7.62386 16.9104C8.88449 16.6102 10.0851 15.3496 10.6254 14.5092C11.0456 13.9089 11.886 12.3481 11.5858 11.5677C11.4058 11.2675 11.1056 11.0875 10.6854 11.1475Z" fill="#B300B3"></path><path fill-rule="evenodd" clip-rule="evenodd" d="M64.8325 55.0296C64.2923 55.1497 63.692 55.4499 63.2718 55.81C63.2117 55.8701 63.1517 55.9301 63.0917 55.9901C62.6114 56.3503 62.1912 56.8906 61.771 57.4308C61.3508 58.0311 60.5104 59.5319 60.7505 60.3723C60.9306 61.0327 61.5909 60.9126 62.1312 60.6725C62.3113 60.6124 62.3713 60.4924 62.4914 60.3723C62.9116 59.9521 64.7125 58.2112 64.8325 58.0311C64.9526 57.9111 65.0126 57.731 65.0727 57.6109C65.2528 57.3108 65.3728 57.0707 65.4929 56.7105C65.793 55.9301 65.9131 54.7895 64.8325 55.0296Z" fill="#B300B3"></path><path fill-rule="evenodd" clip-rule="evenodd" d="M7.08353 55.0294C6.30313 55.2095 6.66332 56.4101 6.90344 56.9504C7.08353 57.3106 7.38368 57.9109 7.68383 58.151L9.36467 59.8318C9.60479 60.0719 9.84492 60.3121 10.025 60.4922C10.2051 60.6723 12.3062 61.5127 11.3457 58.7513C10.9255 57.6107 9.96498 56.4101 9.06452 55.6898C8.64431 55.5097 7.74386 54.9094 7.08353 55.0294Z" fill="#00B0DE"></path><path fill-rule="evenodd" clip-rule="evenodd" d="M17.4688 66.6155C17.4688 66.7355 17.5888 66.9756 17.6489 67.0357C17.7089 67.0957 17.949 67.2158 18.0691 67.2758C18.3092 67.3959 18.6093 67.576 18.8495 67.756C19.3897 68.0562 19.93 68.2963 20.4703 68.5965C20.7704 68.7766 22.8114 69.737 23.1116 69.677C23.4718 69.617 23.7719 69.4969 23.7119 69.0767C23.5918 68.5364 22.9315 67.9962 22.5713 67.696C21.5508 66.9156 20.4703 66.4354 19.1496 66.1352C18.6093 65.9551 17.2887 65.8351 17.4688 66.6155Z" fill="#B300B3"></path><path fill-rule="evenodd" clip-rule="evenodd" d="M22.9315 2.32287C21.3707 2.92317 19.3297 3.88365 17.889 4.7841C17.7689 4.84413 17.5888 4.90416 17.5288 5.08425C17.2287 5.5645 17.4688 5.98471 18.2492 5.98471C18.6094 5.98471 18.9695 5.92468 19.3297 5.86465C19.6299 5.80462 19.99 5.68456 20.2902 5.5645C21.4908 5.14428 22.5113 4.54398 23.2917 3.64353C23.5318 3.34338 23.952 2.68305 23.4118 2.44293C23.2917 2.32287 23.1116 2.26284 22.9315 2.32287Z" fill="#3B4A94"></path><path fill-rule="evenodd" clip-rule="evenodd" d="M49.2247 2.323C48.8645 2.38303 48.5644 2.56312 48.6844 2.98333C49.1647 4.24396 51.0256 5.20445 52.2262 5.62466C52.7665 5.80475 53.727 6.1049 54.3873 5.98484C54.7475 5.92481 55.0476 5.74472 54.9276 5.32451C54.8075 4.96433 54.6274 4.9043 54.2672 4.7242C53.3668 4.1239 51.9861 3.40354 51.0256 2.98333C50.6054 2.80324 50.1852 2.62315 49.7049 2.44306C49.5248 2.38303 49.4648 2.323 49.2247 2.323Z" fill="#B300B3"></path><path fill-rule="evenodd" clip-rule="evenodd" d="M54.9276 66.6154C55.1077 65.775 53.667 66.0151 53.1868 66.0751C52.5264 66.1952 51.8661 66.4353 51.3258 66.6754C50.3653 67.0956 48.9847 68.0561 48.6845 69.0166C48.5644 69.4368 48.9246 69.6169 49.2848 69.6169C49.4649 69.6169 49.645 69.5569 49.765 69.4968C51.5059 68.7165 52.6465 68.2362 54.3273 67.2757C54.6875 67.0956 54.8076 67.0956 54.9276 66.6154Z" fill="#3B4A94"></path><path fill-rule="evenodd" clip-rule="evenodd" d="M0 35.8798C0 36.3 0.0600302 39.2415 0.180091 39.4216C0.240121 39.5416 0.480241 39.4216 0.540272 39.3616C1.2006 38.8813 1.32066 37.0204 1.32066 36.3C1.32066 35.4596 1.32066 34.9193 1.14057 34.0789C1.02051 33.5987 0.840422 32.9383 0.540272 32.7582C0.480241 32.6982 0.300151 32.6382 0.180091 32.6982C0.12006 32.7582 0.12006 32.9984 0.12006 33.1184C0.0600302 34.0189 0 34.9193 0 35.8798Z" fill="#B300B3"></path><path fill-rule="evenodd" clip-rule="evenodd" d="M0.660339 29.0965C0.96049 28.9765 1.3807 28.2561 1.50076 27.9559C1.981 26.9354 2.22112 25.975 2.40121 24.8944C2.46124 24.5342 2.5813 23.3336 2.40121 23.0935C2.28115 23.2736 1.50076 25.6148 1.44073 25.975C1.32067 26.4552 1.14058 26.9955 1.02052 27.4757C0.96049 27.7759 0.72037 28.7964 0.660339 29.0965Z" fill="#3B4A94"></path><path fill-rule="evenodd" clip-rule="evenodd" d="M70.1153 27.7758C70.1753 27.5357 69.9352 26.095 69.8151 25.7948C69.2748 23.6337 68.7946 22.133 67.654 19.9119C66.8136 20.0319 66.6935 21.6527 66.6935 21.9529C66.7536 23.2736 67.1138 24.6542 68.0742 25.9749C68.3744 26.3951 69.3949 27.5357 70.1153 27.7758Z" fill="#00E7FF"></path><path fill-rule="evenodd" clip-rule="evenodd" d="M2.46127 49.0865C2.82145 48.4862 2.28118 46.3251 2.10109 45.6648C1.921 45.1245 1.80094 44.6443 1.56082 44.2241C1.38073 43.9239 0.960519 43.1435 0.720398 43.0835C0.780428 43.4437 0.960519 44.2841 1.08058 44.6443C1.44076 45.9649 1.74091 47.1055 2.22115 48.3661C2.22115 48.5462 2.40124 49.0265 2.46127 49.0865Z" fill="#3B4A94"></path><path d="M48.3243 35.8198V46.2051H44.8425V35.8198C44.8425 32.7583 46.4033 31.1975 49.4649 31.1975H58.7095C61.771 31.1975 63.3318 32.7583 63.3318 35.8198V46.2051H59.8501V41.5827H50.6054V38.101H59.8501V35.8198C59.8501 35.0394 59.4899 34.6793 58.7095 34.6793H49.4649C48.6845 34.6793 48.3243 35.0394 48.3243 35.8198ZM71.0757 42.7233H84.9427V46.2051H71.0757C68.0142 46.2051 66.4534 44.6443 66.4534 41.5827V31.1975H69.9351V41.5827C69.8751 42.3631 70.2953 42.7233 71.0757 42.7233ZM90.4054 35.8198V46.2051H86.9237V35.8198C86.9237 32.7583 88.4845 31.1975 91.546 31.1975H100.791C103.852 31.1975 105.413 32.7583 105.413 35.8198V46.2051H101.931V41.5827H92.6866V38.101H101.931V35.8198C101.931 35.0394 101.571 34.6793 100.791 34.6793H91.546C90.8256 34.6793 90.4054 35.0394 90.4054 35.8198ZM112.196 34.6793V46.2051H108.715V31.1975H122.582C125.643 31.1975 127.204 32.7583 127.204 35.8198C127.204 38.8814 125.643 40.4422 122.582 40.4422H121.681L127.444 46.2051H122.582L113.337 36.9604H122.582C123.362 36.9604 123.722 36.6002 123.722 35.8198C123.722 35.0394 123.362 34.6793 122.582 34.6793H112.196ZM133.807 42.7233H147.674V46.2051H133.807C130.746 46.2051 129.185 44.6443 129.185 41.5827V35.8198C129.185 32.7583 130.746 31.1975 133.807 31.1975H147.674V34.6793H133.807C133.027 34.6793 132.667 35.0394 132.667 35.8198V41.5827C132.667 42.3631 133.027 42.7233 133.807 42.7233ZM163.342 34.6793H154.097C153.317 34.6793 152.957 35.0394 152.957 35.8198V41.5827C152.957 42.3631 153.317 42.7233 154.097 42.7233H163.342C164.122 42.7233 164.483 42.3631 164.483 41.5827V35.8198C164.483 35.0394 164.122 34.6793 163.342 34.6793ZM154.097 31.1975H163.342C166.404 31.1975 167.964 32.7583 167.964 35.8198V41.5827C167.964 44.6443 166.404 46.2051 163.342 46.2051H154.097C151.036 46.2051 149.475 44.6443 149.475 41.5827V35.8198C149.535 32.7583 151.036 31.1975 154.097 31.1975ZM174.268 35.8198V46.2051H170.786V35.8198C170.786 32.7583 172.347 31.1975 175.408 31.1975H178.89C180.09 31.1975 181.051 31.4376 181.771 31.9179C182.492 31.4376 183.452 31.1975 184.653 31.1975H188.135C191.196 31.1975 192.757 32.7583 192.757 35.8198V46.2051H189.275V35.8198C189.275 35.0394 188.915 34.6793 188.135 34.6793H184.653C183.872 34.6793 183.512 35.0394 183.512 35.8198V46.2051H180.03V35.8198C180.03 35.0394 179.67 34.6793 178.89 34.6793H175.408C174.688 34.6793 174.268 35.0394 174.268 35.8198Z" fill="#373435"></path><path fill-rule="evenodd" clip-rule="evenodd" d="M57.2088 17.5708C58.1693 17.6908 58.8896 17.931 59.61 18.4712L60.0902 18.8314C60.3303 19.0115 60.5705 19.3117 60.7506 19.5518C62.0112 21.2926 61.8311 23.7539 60.2103 25.1346C59.4899 25.7349 58.1693 26.3952 56.8486 26.1551C55.8881 26.035 55.2278 25.7349 54.4474 25.2546C54.0272 24.9545 53.607 24.5343 53.3669 24.1141C53.2468 23.934 53.0667 23.6939 52.9466 23.3937C52.7065 22.8534 52.5264 22.3132 52.5264 21.5928C52.4664 19.1916 54.6275 17.2706 57.2088 17.5708Z" fill="#00E7FF"></path></g><defs><clipPath id="clip0_59_904"><rect width="192.757" height="70.8356" fill="white" transform="translate(0 0.582275)"></rect></clipPath></defs></svg> 