<?xml version="1.0" encoding="UTF-8"?> <svg xmlns="http://www.w3.org/2000/svg" width="169" height="143" viewBox="0 0 169 143" fill="none"> <path d="M105.441 3.75764C105.261 4.03889 104.203 5.28889 104.594 5.60139C104.617 5.62093 104.644 5.63655 104.676 5.64827C104.91 5.71858 105.316 5.4764 105.508 5.36311C105.781 5.19905 106.297 4.82405 106.621 4.90608C106.961 4.99202 107.281 5.46077 107.484 5.7303C107.625 5.9139 107.863 6.23811 108.074 6.34358C108.156 6.38655 108.344 6.46858 108.433 6.40608C108.59 6.2928 108.535 5.83186 108.511 5.67561C108.414 5.08577 108.078 4.02718 108.965 3.87874C109.195 3.83968 109.437 3.83186 109.668 3.81624C109.965 3.7928 110.617 3.77327 110.683 3.39046C110.719 3.18343 109.871 2.89046 109.73 2.83968C109.426 2.73421 108.898 2.58577 108.64 2.40608C108.238 2.12483 108.355 0.824051 108.304 0.351395C108.293 0.27327 108.254 0.0349885 108.16 0.00373847C108.027 -0.0392295 107.769 0.257645 107.707 0.339676C107.308 0.851395 106.918 1.61702 106.246 1.78108C106.023 1.83968 105.73 1.76546 105.511 1.70686C105.222 1.62874 104.941 1.53889 104.648 1.47639C104.601 1.46858 104.551 1.45686 104.496 1.44905C103.98 1.36311 104.07 1.75764 104.328 2.02718C104.683 2.40218 105.812 3.17171 105.441 3.75764Z" fill="#E62671"></path> <path d="M0.730469 123.445H0.0859375V129.453H0.730469V123.445ZM4.35156 129.453L1.48828 126.297L4.12109 123.445H3.3125L0.738281 126.316L3.49609 129.453H4.35156ZM9.10547 126.449C9.10547 125.074 9.0625 124.551 8.49609 123.984C8.125 123.613 7.62891 123.395 7.00391 123.395C6.37891 123.395 5.87109 123.613 5.5 123.984C4.93359 124.551 4.89844 125.074 4.89844 126.449C4.89844 127.824 4.93359 128.352 5.5 128.914C5.87109 129.285 6.37891 129.504 7.00391 129.504C7.62891 129.504 8.125 129.285 8.49609 128.914C9.0625 128.352 9.10547 127.824 9.10547 126.449ZM8.46484 126.449C8.46484 127.684 8.42187 128.121 8.03906 128.508C7.76172 128.789 7.40625 128.934 7.00391 128.934C6.59766 128.934 6.24219 128.789 5.96484 128.508C5.58203 128.121 5.53906 127.684 5.53906 126.449C5.53906 125.215 5.58203 124.777 5.96484 124.391C6.24219 124.109 6.59766 123.965 7.00391 123.965C7.40625 123.965 7.76172 124.109 8.03906 124.391C8.42187 124.777 8.46484 125.215 8.46484 126.449ZM14.7109 125.207C14.7109 124.137 13.9414 123.445 12.8516 123.445H10.6133V129.453H11.2578V126.98H12.8516C13.9414 126.98 14.7109 126.281 14.7109 125.207ZM14.0703 125.207C14.0703 126 13.5547 126.406 12.8008 126.406H11.2578V124.02H12.8008C13.5547 124.02 14.0703 124.414 14.0703 125.207ZM20.0625 129.453V123.445H15.9336V129.453H16.5742V124.02H19.4219V129.453H20.0625ZM25.7891 126.449C25.7891 125.074 25.7461 124.551 25.1797 123.984C24.8086 123.613 24.3086 123.395 23.6875 123.395C23.0625 123.395 22.5547 123.613 22.1836 123.984C21.6172 124.551 21.582 125.074 21.582 126.449C21.582 127.824 21.6172 128.352 22.1836 128.914C22.5547 129.285 23.0625 129.504 23.6875 129.504C24.3086 129.504 24.8086 129.285 25.1797 128.914C25.7461 128.352 25.7891 127.824 25.7891 126.449ZM25.1445 126.449C25.1445 127.684 25.1055 128.121 24.7227 128.508C24.4453 128.789 24.0898 128.934 23.6875 128.934C23.2812 128.934 22.9258 128.789 22.6484 128.508C22.2656 128.121 22.2266 127.684 22.2266 126.449C22.2266 125.215 22.2656 124.777 22.6484 124.391C22.9258 124.109 23.2812 123.965 23.6875 123.965C24.0898 123.965 24.4453 124.109 24.7227 124.391C25.1055 124.777 25.1445 125.215 25.1445 126.449ZM31.3945 125.207C31.3945 124.137 30.625 123.445 29.5352 123.445H27.3008V129.453H27.9414V126.98H29.5352C30.625 126.98 31.3945 126.281 31.3945 125.207ZM30.7539 125.207C30.7539 126 30.2383 126.406 29.4844 126.406H27.9414V124.02H29.4844C30.2383 124.02 30.7539 124.414 30.7539 125.207ZM36.3828 129.453L34.1797 123.445H33.6406L31.4297 129.453H32.1133L32.5938 128.098H35.2188L35.6992 129.453H36.3828ZM35.0312 127.539H32.7891L33.918 124.363L35.0312 127.539ZM40.3516 124.02V123.445H36.2305V124.02H37.9727V129.453H38.6133V124.02H40.3516ZM45.7812 129.453V123.445H45.1719L42.1172 128.34V123.445H41.4766V129.453H42.082L45.1406 124.551V129.453H45.7812ZM51.6484 127.809C51.6484 127.352 51.4961 126.98 51.2031 126.695C51.0586 126.551 50.9492 126.484 50.6719 126.363C50.8984 126.266 50.9922 126.211 51.1172 126.086C51.4062 125.816 51.5547 125.453 51.5547 125.023C51.5547 124.078 50.8477 123.445 49.7852 123.445H47.5195V129.453H49.8594C50.9727 129.453 51.6484 128.832 51.6484 127.809ZM50.9141 125.055C50.9141 125.715 50.4766 126.102 49.7344 126.102H48.1602V124.02H49.7344C50.4766 124.02 50.9141 124.406 50.9141 125.055ZM51.0078 127.773C51.0078 128.449 50.543 128.879 49.8008 128.879H48.1602V126.676H49.8008C50.543 126.676 51.0078 127.102 51.0078 127.773ZM57.2969 129.453V123.445H56.6562V126.137H53.8008V123.445H53.1602V129.453H53.8008V126.711H56.6562V129.453H57.2969ZM64.5938 123.445H63.9531V129.453H64.5938V123.445ZM63.1484 127.691C63.1484 126.625 62.4141 125.918 61.2891 125.918H59.6797V123.445H59.0352V129.453H61.2891C62.4062 129.453 63.1484 128.746 63.1484 127.691ZM62.5 127.691C62.5 128.441 62.0352 128.879 61.2305 128.879H59.6797V126.492H61.2305C62.0352 126.492 62.5 126.93 62.5 127.691ZM69.7188 122H69.1758C69.1445 122.414 68.8984 122.625 68.4844 122.625C68.0703 122.625 67.8242 122.414 67.793 122H67.2539C67.3047 122.75 67.7852 123.062 68.4844 123.062C69.1875 123.062 69.668 122.75 69.7188 122ZM70.6367 129.453V123.445H70.0312L66.9727 128.34V123.445H66.332V129.453H66.9414L69.9961 124.551V129.453H70.6367ZM80.7031 127.691C80.7031 126.625 79.9766 125.918 78.8516 125.918H77.2227V124.02H80.3281V123.445H76.582V129.453H78.8516C79.9766 129.453 80.7031 128.746 80.7031 127.691ZM80.0625 127.691C80.0625 128.441 79.5977 128.879 78.793 128.879H77.2227V126.492H78.793C79.5977 126.492 80.0625 126.93 80.0625 127.691ZM85.9297 129.453V123.445H82.6172V125.883C82.6172 128.383 82.0859 128.879 81.3438 128.879H81.1836V129.453H81.4883C82.6367 129.453 83.2422 128.609 83.2422 126.078V124.02H85.2852V129.453H85.9297ZM91.8555 129.453L89.6523 123.445H89.1133L86.8984 129.453H87.5859L88.0625 128.098H90.6914L91.1719 129.453H91.8555ZM90.5039 127.539H88.2578L89.3906 124.363L90.5039 127.539ZM96.457 124.02V123.445H92.8438V129.453H93.4844V124.02H96.457ZM101.395 126.449C101.395 125.074 101.355 124.551 100.789 123.984C100.418 123.613 99.918 123.395 99.293 123.395C98.668 123.395 98.1641 123.613 97.7891 123.984C97.2266 124.551 97.1914 125.074 97.1914 126.449C97.1914 127.824 97.2266 128.352 97.7891 128.914C98.1641 129.285 98.668 129.504 99.293 129.504C99.918 129.504 100.418 129.285 100.789 128.914C101.355 128.352 101.395 127.824 101.395 126.449ZM100.754 126.449C100.754 127.684 100.715 128.121 100.332 128.508C100.055 128.789 99.6992 128.934 99.293 128.934C98.8906 128.934 98.5352 128.789 98.2539 128.508C97.875 128.121 97.832 127.684 97.832 126.449C97.832 125.215 97.875 124.777 98.2539 124.391C98.5352 124.109 98.8906 123.965 99.293 123.965C99.6992 123.965 100.055 124.109 100.332 124.391C100.715 124.777 100.754 125.215 100.754 126.449ZM106.242 124.02V123.445H102.121V124.02H103.863V129.453H104.504V124.02H106.242ZM111.492 127.809C111.492 127.352 111.344 126.98 111.047 126.695C110.902 126.551 110.793 126.484 110.516 126.363C110.742 126.266 110.836 126.211 110.961 126.086C111.25 125.816 111.402 125.453 111.402 125.023C111.402 124.078 110.691 123.445 109.629 123.445H107.367V129.453H109.703C110.82 129.453 111.492 128.832 111.492 127.809ZM110.762 125.055C110.762 125.715 110.32 126.102 109.578 126.102H108.008V124.02H109.578C110.32 124.02 110.762 124.406 110.762 125.055ZM110.852 127.773C110.852 128.449 110.387 128.879 109.645 128.879H108.008V126.676H109.645C110.387 126.676 110.852 127.102 110.852 127.773ZM116.941 126.449C116.941 125.074 116.898 124.551 116.332 123.984C115.961 123.613 115.465 123.395 114.84 123.395C114.215 123.395 113.707 123.613 113.336 123.984C112.77 124.551 112.734 125.074 112.734 126.449C112.734 127.824 112.77 128.352 113.336 128.914C113.707 129.285 114.215 129.504 114.84 129.504C115.465 129.504 115.961 129.285 116.332 128.914C116.898 128.352 116.941 127.824 116.941 126.449ZM116.297 126.449C116.297 127.684 116.258 128.121 115.875 128.508C115.598 128.789 115.242 128.934 114.84 128.934C114.434 128.934 114.078 128.789 113.801 128.508C113.418 128.121 113.379 127.684 113.379 126.449C113.379 125.215 113.418 124.777 113.801 124.391C114.078 124.109 114.434 123.965 114.84 123.965C115.242 123.965 115.598 124.109 115.875 124.391C116.258 124.777 116.297 125.215 116.297 126.449ZM122.547 125.207C122.547 124.137 121.777 123.445 120.688 123.445H118.449V129.453H119.094V126.98H120.688C121.777 126.98 122.547 126.281 122.547 125.207ZM121.902 125.207C121.902 126 121.391 126.406 120.637 126.406H119.094V124.02H120.637C121.391 124.02 121.902 124.414 121.902 125.207ZM128.078 129.453V123.445H127.469L124.41 128.34V123.445H123.77V129.453H124.379L127.434 124.551V129.453H128.078ZM133.32 124.02V123.445H129.199V124.02H130.938V129.453H131.578V124.02H133.32ZM138.176 129.453V128.879H135.086V126.711H137.719V126.137H135.086V124.02H138.176V123.445H134.441V129.453H138.176ZM143.484 129.453V123.445H140.176V125.883C140.176 128.383 139.645 128.879 138.902 128.879H138.738V129.453H139.047C140.191 129.453 140.801 128.609 140.801 126.078V124.02H142.844V129.453H143.484ZM149.336 127.691C149.336 126.625 148.602 125.918 147.48 125.918H145.867V123.445H145.227V129.453H147.48C148.594 129.453 149.336 128.746 149.336 127.691ZM148.688 127.691C148.688 128.441 148.223 128.879 147.422 128.879H145.867V126.492H147.422C148.223 126.492 148.688 126.93 148.688 127.691ZM154.68 129.453V123.445H154.039V126.137H151.188V123.445H150.543V129.453H151.188V126.711H154.039V129.453H154.68ZM161.977 123.445H161.336V129.453H161.977V123.445ZM160.531 127.691C160.531 126.625 159.797 125.918 158.676 125.918H157.062V123.445H156.422V129.453H158.676C159.789 129.453 160.531 128.746 160.531 127.691ZM159.883 127.691C159.883 128.441 159.418 128.879 158.613 128.879H157.062V126.492H158.613C159.418 126.492 159.883 126.93 159.883 127.691ZM167.102 122H166.559C166.527 122.414 166.281 122.625 165.867 122.625C165.453 122.625 165.211 122.414 165.176 122H164.637C164.688 122.75 165.168 123.062 165.867 123.062C166.57 123.062 167.051 122.75 167.102 122ZM168.02 129.453V123.445H167.414L164.355 128.34V123.445H163.715V129.453H164.324L167.379 124.551V129.453" fill="#003E7D"></path> <path d="M31.5625 135.742C33.0078 135.777 33.4219 136.484 33.4219 137.66C33.4219 138.832 32.9648 139.531 31.5625 139.566V135.742ZM30.9219 139.566C29.5117 139.531 29.0547 138.832 29.0547 137.66C29.0547 136.484 29.4688 135.777 30.9219 135.742V139.566ZM31.5625 140.891V140.113C33.3359 140.055 34.0625 139.203 34.0625 137.633C34.0625 136.063 33.3008 135.25 31.5625 135.191V134.625H30.9219V135.191C29.1836 135.25 28.4141 136.063 28.4141 137.633C28.4141 139.203 29.1484 140.055 30.9219 140.113V140.891H31.5625ZM39.3711 137.852C39.3711 136.477 39.3281 135.953 38.7656 135.387C38.3945 135.016 37.8945 134.797 37.2695 134.797C36.6445 134.797 36.1406 135.016 35.7695 135.387C35.2031 135.953 35.168 136.477 35.168 137.852C35.168 139.23 35.2031 139.75 35.7695 140.316C36.1406 140.691 36.6445 140.91 37.2695 140.91C37.8945 140.91 38.3945 140.691 38.7656 140.316C39.3281 139.75 39.3711 139.23 39.3711 137.852ZM38.7305 137.852C38.7305 139.086 38.6875 139.523 38.3086 139.914C38.0312 140.191 37.6758 140.336 37.2695 140.336C36.8633 140.336 36.5117 140.191 36.2305 139.914C35.8516 139.523 35.8086 139.086 35.8086 137.852C35.8086 136.621 35.8516 136.18 36.2305 135.793C36.5117 135.516 36.8633 135.371 37.2695 135.371C37.6758 135.371 38.0312 135.516 38.3086 135.793C38.6875 136.18 38.7305 136.621 38.7305 137.852ZM45.0195 140.859V134.848H44.3789V137.539H41.5273V134.848H40.8828V140.859H41.5273V138.113H44.3789V140.859H45.0195ZM46.1094 140.285V142.312H46.7422V140.859H50.7695V142.312H51.4062V140.285H50.6875V134.848H47.4023V136.871C47.4023 138.344 47.1914 139.422 46.6445 140.285H46.1094ZM47.3594 140.285C47.8398 139.441 48.0117 138.383 48.0117 137.27V135.422H50.0469V140.285H47.3594ZM55.3984 134.848H54.7578V140.859H55.3984V134.848ZM59.0195 140.859L56.1562 137.699L58.793 134.848H57.9805L55.4062 137.719L58.168 140.859H59.0195ZM63.7734 137.852C63.7734 136.477 63.7305 135.953 63.1641 135.387C62.793 135.016 62.2969 134.797 61.6719 134.797C61.0469 134.797 60.5391 135.016 60.168 135.387C59.6016 135.953 59.5703 136.477 59.5703 137.852C59.5703 139.23 59.6016 139.75 60.168 140.316C60.5391 140.691 61.0469 140.91 61.6719 140.91C62.2969 140.91 62.793 140.691 63.1641 140.316C63.7305 139.75 63.7734 139.23 63.7734 137.852ZM63.1328 137.852C63.1328 139.086 63.0898 139.523 62.7109 139.914C62.4297 140.191 62.0781 140.336 61.6719 140.336C61.2656 140.336 60.9102 140.191 60.6328 139.914C60.2539 139.523 60.2109 139.086 60.2109 137.852C60.2109 136.621 60.2539 136.18 60.6328 135.793C60.9102 135.516 61.2656 135.371 61.6719 135.371C62.0781 135.371 62.4297 135.516 62.7109 135.793C63.0898 136.18 63.1328 136.621 63.1328 137.852ZM70.4336 140.859V134.848H69.793L67.8867 139.109L65.9258 134.848H65.2852V140.859H65.9258V136.289L67.5977 139.914H68.1484L69.793 136.289V140.859H70.4336ZM76.3047 140.859V134.848H72.1758V140.859H72.8164V135.422H75.6602V140.859H76.3047ZM82.2383 140.859L80.0352 134.848H79.4961L77.2812 140.859H77.9688L78.4492 139.5H81.0742L81.5547 140.859H82.2383ZM80.8867 138.941H78.6406L79.7734 135.766L80.8867 138.941ZM87.3047 140.859V134.848H86.6641V137.539H83.8086V134.848H83.168V140.859H83.8086V138.113H86.6641V140.859H87.3047ZM93.3516 140.859V134.848H92.7422L89.6875 139.742V134.848H89.043V140.859H89.6523L92.7109 135.953V140.859H93.3516ZM99.3945 140.859V134.848H98.7891L95.7305 139.742V134.848H95.0898V140.859H95.6953L98.7539 135.953V140.859H99.3945ZM107.367 139.195C107.367 138.477 106.961 137.98 106.387 137.77C106.895 137.582 107.273 137.082 107.273 136.449C107.273 135.445 106.547 134.848 105.5 134.848H103.238V140.859H105.574C106.641 140.859 107.367 140.285 107.367 139.195ZM106.723 139.18C106.723 139.855 106.258 140.285 105.516 140.285H103.879V138.082H105.516C106.258 138.082 106.723 138.504 106.723 139.18ZM106.633 136.457C106.633 137.176 106.117 137.504 105.449 137.504H103.879V135.422H105.449C106.117 135.422 106.633 135.742 106.633 136.457ZM109.52 134.848H108.875V140.859H109.52V134.848ZM117.355 138.672V137.719H115.234V138.266H116.711V138.73C116.711 139.188 116.617 139.516 116.375 139.82C116.098 140.156 115.676 140.336 115.234 140.336C114.82 140.336 114.465 140.191 114.195 139.914C113.816 139.523 113.773 139.086 113.773 137.852C113.773 136.621 113.816 136.18 114.195 135.793C114.465 135.516 114.82 135.371 115.234 135.371C115.984 135.371 116.527 135.824 116.695 136.594H117.336C117.168 135.555 116.367 134.797 115.234 134.797C114.609 134.797 114.102 135.016 113.73 135.387C113.164 135.953 113.133 136.477 113.133 137.852C113.133 139.23 113.164 139.75 113.73 140.316C114.102 140.691 114.609 140.91 115.234 140.91C115.852 140.91 116.414 140.68 116.84 140.215C117.227 139.785 117.355 139.363 117.355 138.672ZM123.055 140.859L121.625 138.129C122.402 137.973 122.934 137.398 122.934 136.52C122.934 135.48 122.199 134.848 121.152 134.848H118.848V140.859H119.488V138.191H120.934L122.301 140.859H123.055ZM122.293 136.527C122.293 137.262 121.797 137.625 121.094 137.625H119.488V135.422H121.094C121.797 135.422 122.293 135.793 122.293 136.527ZM128.32 137.852C128.32 136.477 128.277 135.953 127.715 135.387C127.344 135.016 126.844 134.797 126.219 134.797C125.594 134.797 125.09 135.016 124.715 135.387C124.152 135.953 124.117 136.477 124.117 137.852C124.117 139.23 124.152 139.75 124.715 140.316C125.09 140.691 125.594 140.91 126.219 140.91C126.844 140.91 127.344 140.691 127.715 140.316C128.277 139.75 128.32 139.23 128.32 137.852ZM127.68 137.852C127.68 139.086 127.637 139.523 127.258 139.914C126.98 140.191 126.625 140.336 126.219 140.336C125.812 140.336 125.461 140.191 125.18 139.914C124.801 139.523 124.758 139.086 124.758 137.852C124.758 136.621 124.801 136.18 125.18 135.793C125.461 135.516 125.812 135.371 126.219 135.371C126.625 135.371 126.98 135.516 127.258 135.793C127.637 136.18 127.68 136.621 127.68 137.852ZM133.945 138.875V134.848H133.305V138.824C133.305 139.734 132.719 140.336 131.844 140.336C130.965 140.336 130.391 139.734 130.391 138.824V134.848H129.746V138.875C129.746 140.074 130.629 140.91 131.844 140.91C133.059 140.91 133.945 140.074 133.945 138.875ZM139.695 136.609C139.695 135.539 138.926 134.848 137.836 134.848H135.602V140.859H136.242V138.383H137.836C138.926 138.383 139.695 137.684 139.695 136.609ZM139.055 136.609C139.055 137.406 138.539 137.809 137.785 137.809H136.242V135.422H137.785C138.539 135.422 139.055 135.816 139.055 136.609Z" fill="#003E7D"></path> <path d="M71.5626 94.668C79.3047 97.0625 84.7696 97.0234 92.5235 94.3906C93.4376 88.5 93.6446 80.9297 92.5704 75.3164C91.3321 72.6641 94.0821 75.2031 93.8907 72.8789C91.8086 63.6172 92.2696 53.6055 92.6758 50.4961C93.1915 47.9102 99.3946 47.3945 99.9141 41.1914C99.9141 41.1914 102.004 38.4492 104.07 34.832C106.137 31.2109 107.762 24.6094 107.762 23.0586C107.762 16.8555 110.188 20.4453 108.637 15.2734C108.637 15.2734 107.699 16.0781 106.148 20.2109C104.598 24.3477 105.707 22.0117 102.496 25.6836C98.879 29.8203 95.7774 34.4688 95.7774 34.4688L89.5352 35.3008C88.0665 35.5 88.2735 35.3945 86.9883 36.0703C85.7149 36.9844 83.5508 37.3516 85.3047 35.7734C87.0274 34.2227 87.4297 32.5352 85.879 26.8477C84.3282 21.1602 82.8555 20.5117 82.8555 20.5117C82.8555 20.5117 83.8868 19.4805 84.4063 16.3789C84.4063 16.3789 82.6797 18.9375 74.754 20.4844C72.5352 20.918 69.2891 24.2969 69.2891 29.4648C69.2657 32.6055 71.5782 34.0742 74.0665 37.5703C76.0665 39.2852 75.2032 37.2305 71.586 41.3672C68.5508 44.8359 69.2657 46.832 69.2657 49.8438C69.2657 54.2148 70.2149 63.5625 70.254 66.5039C70.4336 80.0508 73.461 84.25 71.5626 94.668Z" fill="#004893"></path> <path fill-rule="evenodd" clip-rule="evenodd" d="M77.9492 55.4022C78.3555 54.91 78.8281 54.4725 79.3672 54.0897C84.8945 48.9413 85.957 48.3085 87.1602 44.4335C87.6641 41.6717 89.418 37.5467 91.8555 32.9178C92.7578 31.7499 93.0977 30.6405 92.8672 29.5897C94.1172 28.0311 94.6992 27.0585 94.6094 26.6717C94.1523 25.8671 93.6641 25.9569 93.1484 26.9335C92.5586 27.4217 92.9922 27.16 92.3789 27.4764C92.2461 27.5546 91.9961 27.3006 92.3242 26.9803C92.8398 26.4842 93.2773 26.285 93.8125 26.16C93.9453 26.0116 93.9844 25.8006 93.9102 25.6171C93.8359 25.4296 93.6641 25.3046 93.4688 25.2889C92.7852 25.3983 92.2305 25.7147 91.7969 26.2421C92.3086 25.0936 92.7852 24.3827 93.2227 24.1053C93.4883 23.7694 93.6328 23.4569 93.6523 23.1796C93.6406 22.953 93.5078 22.7499 93.3008 22.6561C93.0977 22.5585 92.8555 22.5858 92.6758 22.7264C91.9805 23.3163 91.082 24.371 90.8945 25.2655C90.6055 24.9217 90.9766 23.9335 91.5547 23.0819C91.6953 22.5272 91.3203 22.2421 90.8984 22.4296C90.0391 23.3202 89.3125 24.7342 89.0547 26.8163C88.6133 28.5858 88.5117 29.7069 88.7461 30.1717C87.0273 35.0819 78.9492 40.328 77.2188 44.203C75.7148 43.496 70.3008 47.371 69.6211 48.5194" fill="#004893"></path> <path d="M45.2656 75.6406L45.3984 75.6055C47.6719 81.5664 51.0938 86.5312 55.5781 90.5898C55.2578 91.0273 54.9375 91.457 54.6133 91.8906C50.2852 87.4219 47.1289 82.0312 45.2656 75.6406ZM69.7227 98.9453C77.2031 101.531 85.2617 101.812 93.4336 99.4258C113.359 93.6133 125.238 73.4961 121.117 53.5078L121.25 53.4688C127.371 74.4414 115.312 96.4102 94.3398 102.531C85.6289 105.074 77.0078 104.57 69.1562 101.508" fill="#EF7C00"></path> <path d="M106.828 16.8164C106.305 16.8672 105.887 17.6524 105.25 19.3477C103.965 22.7734 105.422 22.8711 102.496 25.6836C99.7188 28.8594 97.207 32.3125 96.2461 33.7852C95.9297 34.2656 95.9844 34.4414 95.0352 34.5703L89.9453 35.25C88.7227 35.4102 88.2969 35.3711 87.2422 35.9375C86.043 36.5781 84.0742 37.543 85.957 35.8477C87.0391 34.3516 87.7891 32.4024 86.2383 26.7188C84.6914 21.0313 82.8555 20.5117 82.8555 20.5117C82.8555 20.5117 83.8867 19.4805 84.4062 16.3789C84.4062 16.3789 82.4805 18.9727 74.5547 20.5274C72.3359 20.957 69.2656 23.4609 69.2656 28.6289C69.2656 33.7969 71.6563 35.5039 74.0664 37.5703C75.2383 38.5781 74.5625 39.6484 73.0742 41.1953C75.1992 40.6719 77.418 40.3906 79.7031 40.3906C86.3008 40.3906 92.3555 42.7031 97.1016 46.5625C98.4805 45.3906 99.6953 43.7891 99.9141 41.1914C99.9141 41.1914 102.496 38.6055 104.562 34.9883C106.633 31.3711 108.566 24.832 108.566 23.2813C108.566 22.5547 109.07 20.957 110.016 21.1914C110.789 21.3867 111.629 22.6133 112.094 23.2305C112.496 23.7656 113.129 24.6172 113.734 24.9219C114.074 25.0899 114.629 25.3047 114.98 25.0508C115.523 24.6641 115.395 23.418 115.305 22.8594C115.258 22.582 115.203 22.3086 115.152 22.0352C114.914 20.793 114.484 18.8164 116.238 18.5234C116.828 18.4258 117.445 18.4063 118.047 18.3633C118.82 18.3086 120.152 18.2227 120.691 17.5859C120.836 17.4219 120.922 17.2266 120.957 17.0078C120.965 16.957 120.965 16.9102 120.961 16.8594C120.852 16.1172 118.887 15.457 118.285 15.2461C117.754 15.0625 117.219 14.8867 116.691 14.6953C116.316 14.5547 115.844 14.3789 115.516 14.1524C114.914 13.7305 114.867 12.0195 114.844 11.3516C114.824 10.9063 114.82 10.4609 114.812 10.0156C114.805 9.68751 114.801 9.33595 114.762 9.01173C114.723 8.65236 114.594 7.99611 114.191 7.85939C113.656 7.67579 112.949 8.48048 112.676 8.83595C112.605 8.92579 112.535 9.01954 112.465 9.11329C111.676 10.1797 110.781 11.7266 109.551 12.3008C109.387 12.3789 109.219 12.4375 109.043 12.4805C108.523 12.6094 107.777 12.418 107.27 12.2813C106.516 12.082 105.773 11.8438 105.012 11.6875C104.879 11.6602 104.742 11.6328 104.609 11.6133C102.969 11.336 103.008 12.6797 103.902 13.625C104.352 14.0938 104.883 14.5274 105.359 14.9727C105.781 15.3672 106.57 16.0938 106.828 16.8164ZM95.0664 21.2149C94.8906 21.5 93.8281 22.7461 94.2227 23.0586C94.2461 23.0781 94.2734 23.0938 94.3047 23.1055C94.5352 23.1758 94.9414 22.9336 95.1328 22.8203C95.4062 22.6563 95.9219 22.2813 96.2461 22.3633C96.5898 22.4453 96.9062 22.918 97.1094 23.1875C97.2539 23.3711 97.4922 23.6992 97.6992 23.8008C97.7812 23.8438 97.9727 23.9258 98.0625 23.8633C98.2148 23.75 98.1641 23.2891 98.1367 23.1328C98.0391 22.543 97.707 21.4844 98.5898 21.3359C98.8242 21.2969 99.0625 21.2891 99.2969 21.2734C99.5938 21.25 100.242 21.2305 100.309 20.8477C100.344 20.6406 99.5 20.3477 99.3594 20.2969C99.0508 20.1914 98.5234 20.043 98.2695 19.8633C97.8633 19.582 97.9844 18.2813 97.9297 17.8086C97.9219 17.7305 97.8789 17.4922 97.7852 17.4609C97.6562 17.418 97.3984 17.7149 97.332 17.7969C96.9375 18.3086 96.5469 19.0742 95.875 19.2383C95.6523 19.293 95.3555 19.2227 95.1367 19.1641C94.8516 19.0859 94.5703 18.9961 94.2773 18.9375C94.2266 18.9258 94.1758 18.918 94.125 18.9063C93.6055 18.8203 93.6992 19.2149 93.957 19.4883C94.3125 19.8633 95.4414 20.6289 95.0664 21.2149Z" fill="#009EE3"></path> <path d="M95.0666 21.2147C94.8908 21.4998 93.8283 22.7459 94.2228 23.0584C94.2463 23.078 94.2736 23.0936 94.3049 23.1053C94.5353 23.1756 94.9416 22.9334 95.133 22.8201C95.4064 22.6561 95.9221 22.2811 96.2463 22.3631C96.59 22.4451 96.9064 22.9178 97.1096 23.1873C97.2541 23.3709 97.4924 23.6991 97.6994 23.8006C97.7814 23.8436 97.9728 23.9256 98.0627 23.8631C98.215 23.7498 98.1642 23.2889 98.1369 23.1326C98.0392 22.5428 97.7072 21.4842 98.59 21.3358C98.8244 21.2967 99.0627 21.2889 99.2971 21.2733C99.5939 21.2498 100.242 21.2303 100.309 20.8475C100.344 20.6405 99.5002 20.3475 99.3596 20.2967C99.051 20.1912 98.5236 20.0428 98.2697 19.8631C97.8635 19.5819 97.9846 18.2811 97.9299 17.8084C97.9221 17.7303 97.8791 17.492 97.7853 17.4608C97.6564 17.4178 97.3986 17.7147 97.3322 17.7967C96.9377 18.3084 96.5471 19.0741 95.8752 19.2381C95.6525 19.2928 95.3557 19.2225 95.1369 19.1639C94.8517 19.0858 94.5705 18.9959 94.2775 18.9373C94.2267 18.9256 94.176 18.9178 94.1252 18.9061C93.6057 18.8201 93.6994 19.2147 93.9572 19.4881C94.3127 19.8631 95.4416 20.6287 95.0666 21.2147Z" fill="#EF7C00"></path> <path d="M106.828 16.8164C106.305 16.8672 105.887 17.6524 105.25 19.3477C103.965 22.7734 105.422 22.8711 102.496 25.6836C99.7188 28.8594 97.207 32.3125 96.2461 33.7852C95.9297 34.2656 95.9844 34.4414 95.0352 34.5703L89.9453 35.25C88.7227 35.4102 88.2969 35.3711 87.2422 35.9375C86.043 36.5781 84.0742 37.543 85.957 35.8477C86.4609 35.1484 86.8945 34.3516 87.0547 33.1211C80.3047 32.5859 74.7969 27.5313 73.4102 20.9102C71.4102 21.8516 69.2656 24.3086 69.2656 28.6289C69.2656 33.7969 71.6563 35.5039 74.0664 37.5703C75.2383 38.5781 74.5625 39.6484 73.0742 41.1953C75.1992 40.6719 77.418 40.3906 79.7031 40.3906C86.3008 40.3906 92.3555 42.7031 97.1016 46.5625C98.4805 45.3906 99.6953 43.7891 99.9141 41.1914C99.9141 41.1914 102.496 38.6055 104.562 34.9883C106.633 31.3711 108.566 24.832 108.566 23.2813C108.566 22.5547 109.07 20.957 110.016 21.1914C110.789 21.3867 111.629 22.6133 112.094 23.2305C112.496 23.7656 113.129 24.6172 113.734 24.9219C114.074 25.0899 114.629 25.3047 114.98 25.0508C115.523 24.6641 115.395 23.418 115.305 22.8594C115.258 22.582 115.203 22.3086 115.152 22.0352C114.914 20.793 114.484 18.8164 116.238 18.5234C116.828 18.4258 117.445 18.4063 118.047 18.3633C118.82 18.3086 120.152 18.2227 120.691 17.5859C120.836 17.4219 120.922 17.2266 120.957 17.0078C120.965 16.957 120.965 16.9102 120.961 16.8594C120.852 16.1172 118.887 15.457 118.285 15.2461C117.754 15.0625 117.219 14.8867 116.691 14.6953C116.316 14.5547 115.844 14.3789 115.516 14.1524C114.914 13.7305 114.867 12.0195 114.844 11.3516C114.824 10.9063 114.82 10.4609 114.812 10.0156C114.805 9.68751 114.801 9.33595 114.762 9.01173C114.723 8.65236 114.594 7.99611 114.191 7.85939C113.656 7.67579 112.949 8.48048 112.676 8.83595C112.605 8.92579 112.535 9.01954 112.465 9.11329C111.676 10.1797 110.781 11.7266 109.551 12.3008C109.387 12.3789 109.219 12.4375 109.043 12.4805C108.523 12.6094 107.777 12.418 107.27 12.2813C106.516 12.082 105.773 11.8438 105.012 11.6875C104.879 11.6602 104.742 11.6328 104.609 11.6133C102.969 11.336 103.008 12.6797 103.902 13.625C104.352 14.0938 104.883 14.5274 105.359 14.9727C105.781 15.3672 106.57 16.0938 106.828 16.8164Z" fill="#008AD1"></path> <path d="M106.828 16.8164C106.305 16.8672 105.887 17.6524 105.25 19.3477C103.965 22.7734 105.422 22.8711 102.496 25.6836C99.7188 28.8594 97.207 32.3125 96.2461 33.7852C95.9297 34.2656 95.9844 34.4414 95.0352 34.5703L89.9453 35.25C88.7227 35.4102 88.2969 35.3711 87.2422 35.9375C86.043 36.5781 84.0742 37.543 85.957 35.8477C86.2578 35.4336 86.5312 34.9805 86.7422 34.4219C85.9961 34.5117 85.2422 34.5586 84.4766 34.5586C78.2812 34.5586 72.7891 31.543 69.3906 26.8984C69.3086 27.4414 69.2656 28.0156 69.2656 28.6289C69.2656 33.7969 71.6563 35.5039 74.0664 37.5703C75.2383 38.5781 74.5625 39.6484 73.0742 41.1953C75.1992 40.6719 77.418 40.3906 79.7031 40.3906C86.3008 40.3906 92.3555 42.7031 97.1016 46.5625C98.4805 45.3906 99.6953 43.7891 99.9141 41.1914C99.9141 41.1914 102.496 38.6055 104.562 34.9883C106.633 31.3711 108.566 24.832 108.566 23.2813C108.566 22.5547 109.07 20.957 110.016 21.1914C110.789 21.3867 111.629 22.6133 112.094 23.2305C112.496 23.7656 113.129 24.6172 113.734 24.9219C114.074 25.0899 114.629 25.3047 114.98 25.0508C115.523 24.6641 115.395 23.418 115.305 22.8594C115.258 22.582 115.203 22.3086 115.152 22.0352C114.914 20.793 114.484 18.8164 116.238 18.5234C116.828 18.4258 117.445 18.4063 118.047 18.3633C118.82 18.3086 120.152 18.2227 120.691 17.5859C120.836 17.4219 120.922 17.2266 120.957 17.0078C120.965 16.957 120.965 16.9102 120.961 16.8594C120.852 16.1172 118.887 15.457 118.285 15.2461C117.754 15.0625 117.219 14.8867 116.691 14.6953C116.316 14.5547 115.844 14.3789 115.516 14.1524C114.914 13.7305 114.867 12.0195 114.844 11.3516C114.824 10.9063 114.82 10.4609 114.812 10.0156C114.805 9.68751 114.801 9.33595 114.762 9.01173C114.723 8.65236 114.594 7.99611 114.191 7.85939C113.656 7.67579 112.949 8.48048 112.676 8.83595C112.605 8.92579 112.535 9.01954 112.465 9.11329C111.676 10.1797 110.781 11.7266 109.551 12.3008C109.387 12.3789 109.219 12.4375 109.043 12.4805C108.523 12.6094 107.777 12.418 107.27 12.2813C106.516 12.082 105.773 11.8438 105.012 11.6875C104.879 11.6602 104.742 11.6328 104.609 11.6133C102.969 11.336 103.008 12.6797 103.902 13.625C104.352 14.0938 104.883 14.5274 105.359 14.9727C105.781 15.3672 106.57 16.0938 106.828 16.8164Z" fill="#0070AC"></path> <path d="M74.5156 39.3162C74.2773 39.867 73.7617 40.4803 73.0742 41.1951C75.1992 40.6717 77.418 40.3905 79.7031 40.3905C86.3008 40.3905 92.3555 42.703 97.1016 46.5623C98.4805 45.3905 99.6953 43.7889 99.9141 41.1912C99.9141 41.1912 102.496 38.6053 104.562 34.9881C106.633 31.3709 108.566 24.8319 108.566 23.2811C108.566 22.5545 109.07 20.9569 110.016 21.1912C110.789 21.3866 111.629 22.6131 112.094 23.2303C112.496 23.7655 113.129 24.617 113.734 24.9217C114.074 25.0897 114.629 25.3045 114.98 25.0506C115.523 24.6639 115.395 23.4178 115.305 22.8592C115.258 22.5819 115.203 22.3084 115.152 22.035C114.914 20.7928 114.484 18.8162 116.238 18.5233C116.828 18.4256 117.445 18.4061 118.047 18.3631C118.82 18.3084 120.152 18.2225 120.691 17.5858C120.836 17.4217 120.922 17.2264 120.957 17.0076C120.965 16.9569 120.965 16.91 120.961 16.8592C120.852 16.117 118.887 15.4569 118.285 15.2459C117.754 15.0623 117.219 14.8866 116.691 14.6951C116.316 14.5545 115.844 14.3787 115.516 14.1522C114.914 13.7303 114.867 12.0194 114.844 11.3514C114.824 10.9061 114.82 10.4608 114.812 10.0155C114.805 9.68733 114.801 9.33577 114.762 9.01155C114.723 8.65218 114.594 7.99593 114.191 7.85921C113.656 7.67561 112.949 8.4803 112.676 8.83577C112.605 8.92561 112.535 9.01936 112.465 9.11311C111.676 10.1795 110.781 11.7264 109.551 12.3006C109.387 12.3787 109.219 12.4373 109.043 12.4803C109.016 12.4881 108.988 12.492 108.965 12.4959C107.906 27.7381 95.2148 39.7733 79.7031 39.7733C77.9336 39.7733 76.1992 39.617 74.5156 39.3162ZM108.402 4.36702C108.469 4.12093 108.629 3.93343 108.965 3.87874C109.195 3.83968 109.438 3.83186 109.668 3.81624C109.965 3.7928 110.617 3.77327 110.684 3.39046C110.719 3.18343 109.871 2.89046 109.73 2.83968C109.426 2.73421 108.898 2.58577 108.641 2.40608C108.238 2.12483 108.355 0.824051 108.305 0.351395C108.293 0.27327 108.254 0.0349885 108.16 0.00373847C108.027 -0.0392295 107.77 0.257645 107.707 0.339676C107.605 0.472488 107.504 0.61702 107.398 0.765457C107.809 1.93343 108.145 3.13655 108.402 4.36702ZM116.949 32.1678C116.77 32.4491 115.711 33.6991 116.102 34.0116C116.129 34.0311 116.156 34.0467 116.184 34.0545C116.418 34.1248 116.824 33.8826 117.016 33.7694C117.289 33.6092 117.805 33.2342 118.129 33.3123C118.469 33.3983 118.789 33.8709 118.992 34.1366C119.133 34.3241 119.371 34.6483 119.582 34.7537C119.664 34.7967 119.852 34.8787 119.941 34.8123C120.098 34.703 120.047 34.2381 120.02 34.0858C119.922 33.4959 119.59 32.4334 120.473 32.285C120.703 32.2498 120.945 32.2381 121.18 32.2225C121.473 32.203 122.125 32.1834 122.191 31.8006C122.227 31.5936 121.383 31.3006 121.238 31.2498C120.934 31.1444 120.406 30.9959 120.148 30.8162C119.746 30.535 119.863 29.2303 119.812 28.7576C119.801 28.6795 119.762 28.4451 119.668 28.4139C119.535 28.367 119.277 28.6678 119.215 28.7498C118.82 29.2576 118.426 30.0272 117.758 30.1912C117.531 30.2459 117.234 30.1717 117.016 30.1131C116.73 30.0389 116.445 29.9491 116.156 29.8866C116.105 29.8787 116.055 29.867 116.008 29.8592C115.484 29.7733 115.578 30.1678 115.84 30.4373C116.191 30.8123 117.32 31.5819 116.949 32.1678Z" fill="#004893"></path> <path fill-rule="evenodd" clip-rule="evenodd" d="M121.141 38.0352C121.141 38.0273 121.141 38.0195 121.141 38.0117C121.141 38.0117 121.141 38.0117 121.137 38.0078C121.133 38.0117 121.133 38.0156 121.129 38.0195C121.133 38.0234 121.137 38.0313 121.141 38.0352Z" fill="#FDFEFC"></path> <path fill-rule="evenodd" clip-rule="evenodd" d="M121.391 37.6641C121.391 37.6562 121.391 37.6484 121.395 37.6406C121.391 37.6367 121.391 37.6367 121.387 37.6367C121.383 37.6406 121.383 37.6445 121.379 37.6484C121.383 37.6523 121.387 37.6602 121.391 37.6641Z" fill="#FDFEFC"></path> <path d="M63.8123 34.3906L63.867 34.4961C49.3123 43.7422 44.0818 62.7773 52.2654 78.293C52.7264 79.1602 53.2186 80 53.7381 80.8125C53.3553 82.0195 53.1092 83.3242 52.9529 84.4023C51.8006 82.9062 50.7615 81.293 49.8475 79.5664C41.2342 63.2383 47.4842 43.0039 63.8123 34.3906ZM62.9842 90.3984C72.199 96.7773 84.1365 98.0859 94.9647 93.4453L95.0193 93.5508C85.0975 98.7852 73.7342 98.5234 64.4139 93.8477C63.8397 93.1211 63.4842 92.4844 62.91 91.3672L62.7264 91.0117C62.699 90.9492 62.6834 90.9219 62.7342 90.8125" fill="#004893"></path> <path d="M67.3477 106.504C67.6641 104.5 68.7266 100.055 69.0625 98.8203C69.0781 98.7656 69.0898 98.7187 69.0312 98.6914C66.3984 97.4414 63.7422 94.7383 62.3477 91.75C62.3281 91.707 62.3164 91.6875 62.2891 91.7383C61.0508 93.9218 60.4453 94.7773 59.4531 96.3945C61.0352 100.227 64.6211 105.066 66.8867 106.641C67.1875 106.852 67.3125 106.738 67.3477 106.504Z" fill="#E62772"></path> <path d="M65.3711 84.8319L65.3906 84.8006C65.1484 81.3749 64.4219 79.8436 64.0938 79.2225C60.5586 85.1678 55.418 93.4256 49.9688 98.6249C51.0352 98.7225 52.168 99.0155 53.1992 99.3202C53.2344 100.808 53.2148 102.367 53.0391 103.84C57.8984 98.1014 61.6953 91.3358 65.3711 84.8319ZM58.1953 83.2108C58.6094 83.16 59.0273 83.1366 59.4336 83.1522C59.8359 83.1678 60.2461 83.2147 60.6523 83.2967C61.0195 82.8631 63.2344 79.3709 63.5586 78.8592C62.2891 78.3866 60.9609 78.1249 59.6094 78.078C58.2578 78.0311 56.9102 78.1991 55.6055 78.5858C55.8984 79.1209 56.8594 80.8788 58.1953 83.2108ZM56.0273 89.9647C56.9609 88.6717 57.9453 87.2733 58.9531 85.8084C57 82.4764 55.5039 79.7381 55.0508 78.9061C54.6797 79.5038 53.8359 81.1756 53.3555 84.5741L53.3711 84.6092C53.8281 85.5702 54.7812 87.5428 56.0273 89.9647Z" fill="#004893"></path> <path d="M108.402 4.36702C108.469 4.12093 108.629 3.93343 108.965 3.87874C109.195 3.83968 109.437 3.83186 109.668 3.81624C109.965 3.7928 110.617 3.77327 110.684 3.39046C110.719 3.18343 109.871 2.89046 109.73 2.83968C109.426 2.73421 108.898 2.58577 108.641 2.40608C108.238 2.12483 108.355 0.824051 108.305 0.351395C108.293 0.27327 108.254 0.0349885 108.16 0.00373847C108.027 -0.0392295 107.77 0.257645 107.707 0.339676C107.605 0.472488 107.504 0.61702 107.398 0.765457C107.809 1.93343 108.145 3.13655 108.402 4.36702Z" fill="#A4185F"></path> </svg> 